<!DOCTYPE svg PUBLIC "-//W3C//DTD SVG 1.1//EN" "http://www.w3.org/Graphics/SVG/1.1/DTD/svg11.dtd">
<!-- Uploaded to: SVG Repo, www.svgrepo.com, Transformed by: SVG Repo Mixer Tools -->
<svg width="800px" height="800px" viewBox="0 0 18 18" xmlns="http://www.w3.org/2000/svg" fill="#000000">
<g id="SVGRepo_bgCarrier" stroke-width="0"/>
<g id="SVGRepo_tracerCarrier" stroke-linecap="round" stroke-linejoin="round"/>
<g id="SVGRepo_iconCarrier"> <path fill="#B31312" d="M9,0a9,9,0,1,0,9,9A9,9,0,0,0,9,0Zm4.707,12.293a1,1,0,1,1-1.414,1.414L9,10.414,5.707,13.707a1,1,0,0,1-1.414-1.414L7.586,9,4.293,5.707A1,1,0,0,1,5.707,4.293L9,7.586l3.293-3.293a1,1,0,0,1,1.414,1.414L10.414,9Z"/> </g>
</svg>